<svg xmlns="http://www.w3.org/2000/svg" width="45" height="45" fill="none" viewBox="0 0 45 45">
  <circle cx="22.5" cy="22.5" r="22.5" fill="#fff"/>
  <g clip-path="url(#a)">
    <path fill="#00A6F4" d="M22.5 13.251c3.34 0 3.735.015 5.049.073 1.22.054 1.88.259 2.32.43.58.225 1 .498 1.435.933.44.439.708.854.932 1.435.171.44.376 1.104.43 2.32.059 1.318.073 1.713.073 5.048 0 3.34-.014 3.736-.073 5.05-.054 1.22-.259 1.879-.43 2.318a3.864 3.864 0 0 1-.932 1.436 3.85 3.85 0 0 1-1.436.933c-.44.17-1.103.376-2.32.43-1.317.058-1.713.073-5.048.073-3.34 0-3.735-.015-5.049-.074-1.22-.053-1.88-.258-2.32-.43-.58-.224-1-.498-1.435-.932a3.843 3.843 0 0 1-.932-1.436c-.171-.44-.376-1.103-.43-2.319-.059-1.318-.073-1.714-.073-5.049 0-3.34.014-3.735.073-5.049.054-1.22.259-1.88.43-2.319a3.865 3.865 0 0 1 .932-1.435 3.85 3.85 0 0 1 1.436-.933c.44-.171 1.103-.376 2.32-.43 1.313-.058 1.708-.073 5.048-.073Zm0-2.251c-3.394 0-3.818.015-5.151.073-1.329.059-2.242.274-3.033.581A6.102 6.102 0 0 0 12.1 13.1a6.126 6.126 0 0 0-1.446 2.212c-.307.795-.522 1.704-.58 3.032-.06 1.338-.074 1.762-.074 5.156 0 3.394.015 3.818.073 5.151.059 1.329.274 2.242.581 3.033A6.102 6.102 0 0 0 12.1 33.9a6.11 6.11 0 0 0 2.212 1.44c.795.308 1.704.523 3.032.582 1.333.059 1.758.073 5.151.073 3.394 0 3.819-.014 5.151-.073 1.329-.059 2.242-.274 3.033-.581a6.11 6.11 0 0 0 2.212-1.44 6.11 6.11 0 0 0 1.44-2.213c.308-.795.522-1.704.581-3.032.059-1.333.073-1.758.073-5.151 0-3.394-.014-3.819-.073-5.151-.059-1.329-.273-2.242-.58-3.033A5.857 5.857 0 0 0 32.9 13.1a6.111 6.111 0 0 0-2.211-1.44c-.796-.308-1.705-.523-3.033-.582C26.318 11.015 25.894 11 22.5 11Z"/>
    <path fill="#00A6F4" d="M22.5 17.08a6.423 6.423 0 0 0-6.42 6.42 6.423 6.423 0 0 0 6.42 6.42 6.423 6.423 0 0 0 6.42-6.42 6.423 6.423 0 0 0-6.42-6.42Zm0 10.585a4.166 4.166 0 1 1 .001-8.331 4.166 4.166 0 0 1-.001 8.331Zm8.174-10.84a1.5 1.5 0 1 1-2.999 0 1.5 1.5 0 0 1 2.999 0Z"/>
  </g>
  <defs>
    <clipPath id="a">
      <path fill="#fff" d="M10 11h25v25H10z"/>
    </clipPath>
  </defs>
</svg>
