<svg xmlns="http://www.w3.org/2000/svg" width="45" height="45" fill="none" viewBox="0 0 45 45">
  <circle cx="22.5" cy="22.5" r="22.5" fill="#fff"/>
  <path fill="#00A6F4" d="M34.741 18.884s-.254-1.765-1.036-2.54c-.99-1.02-2.097-1.024-2.605-1.084-3.636-.26-9.095-.26-9.095-.26h-.01s-5.46 0-9.095.26c-.508.06-1.615.065-2.605 1.085-.782.774-1.03 2.539-1.03 2.539S9 20.958 9 23.028v1.94c0 2.069.259 4.143.259 4.143s.254 1.765 1.03 2.54c.991 1.02 2.291.984 2.87 1.094C15.241 32.94 22 33 22 33s5.464-.01 9.1-.265c.508-.06 1.615-.065 2.605-1.085.782-.774 1.036-2.539 1.036-2.539s.259-2.07.259-4.144v-1.94c0-2.069-.259-4.143-.259-4.143Zm-15.427 8.438v-7.193l3.511 1.804 3.512 1.805-7.023 3.584Z"/>
</svg>
